<?xml version="1.0" encoding="utf-8"?>
<!-- Generator: Adobe Illustrator 26.3.1, SVG Export Plug-In . SVG Version: 6.00 Build 0)  -->
<svg version="1.1" id="Layer_1" xmlns="http://www.w3.org/2000/svg" xmlns:xlink="http://www.w3.org/1999/xlink" x="0px" y="0px"
	 viewBox="0 0 178.05 125.1" style="enable-background:new 0 0 178.05 125.1;" xml:space="preserve">
<style type="text/css">
	.st0{fill:#E1A42F;}
	.st1{fill:#FFC432;}
	.st2{fill:#FFCF32;}
	.st3{opacity:0.5;fill:#FFCF32;}
	.st4{opacity:0.6;fill:#FFFFFF;}
</style>
<g>
	<g>
		<path class="st0" d="M157.43,97.24l0.67-9.07l-2.33-0.16c-6.1-13.91-27.89-25.44-54.62-27.54c-27.46-2.16-51.33,6.31-58.9,19.71
			l-1.82-0.13l-0.63,7.94c-1.39,17.76,23.8,34.22,56.28,36.78C128.57,127.32,156.03,115,157.43,97.24z"/>
		<path class="st1" d="M96.71,116.83c-32.48-2.56-57.67-19.02-56.27-36.78c1.39-17.75,28.86-30.08,61.33-27.52
			c32.48,2.56,57.67,19.02,56.28,36.78C156.65,107.06,129.19,119.39,96.71,116.83z"/>
		<g>
			<path class="st0" d="M100.88,57.99c28.33,2.23,50.55,15.75,50.9,30.62c0.09-0.5,0.16-1.01,0.2-1.52
				c1.22-15.46-21.55-29.85-50.85-32.16c-29.3-2.31-54.05,8.35-55.26,23.81c-0.04,0.51-0.05,1.02-0.04,1.53
				C48.49,65.65,72.55,55.76,100.88,57.99z"/>
			<path class="st2" d="M96.72,110.89c28.33,2.23,52.4-7.66,55.06-22.28c-0.34-14.87-22.57-28.39-50.9-30.62
				c-28.33-2.23-52.4,7.66-55.06,22.28C46.17,95.14,68.39,108.67,96.72,110.89z"/>
			<path class="st3" d="M106.42,64.51c6.19,7.75,12.07,15.71,17.86,23.77c4,5.57,7.97,11.16,11.93,16.76
				c3.1-1.45,5.83-3.11,8.11-4.97c-4.26-6.34-8.59-12.64-13.03-18.87c-5.08-7.11-10.37-14.05-15.72-20.95
				c-4.54-1.06-9.34-1.83-14.35-2.23C102.96,60.19,104.69,62.35,106.42,64.51z"/>
			<path class="st3" d="M63.82,77.13c7.24,8.83,14.16,17.97,20.92,27.18c1.38,1.87,2.73,3.76,4.08,5.65
				c2.57,0.41,5.21,0.72,7.9,0.93c4.47,0.35,8.82,0.39,13.01,0.17c-4.07-5.33-8.2-10.6-12.46-15.78
				C87.88,83.85,78.3,72.56,69.16,60.92c-5.33,1.59-9.99,3.72-13.72,6.28C58.25,70.5,61.07,73.78,63.82,77.13z"/>
		</g>
		<path class="st4" d="M150.71,103.21c0,0-0.24,0.38-0.81,1.02c-0.28,0.32-0.63,0.71-1.09,1.13c-0.23,0.21-0.46,0.46-0.73,0.69
			c-0.27,0.22-0.57,0.46-0.87,0.72c-1.23,1.01-2.85,2.09-4.78,3.21c-0.97,0.55-2.04,1.05-3.16,1.62c-1.13,0.52-2.37,0.98-3.63,1.51
			c-1.29,0.46-2.66,0.88-4.06,1.35c-1.42,0.42-2.91,0.74-4.44,1.13c-0.76,0.21-1.55,0.33-2.34,0.47c-0.8,0.14-1.6,0.29-2.41,0.43
			c-1.62,0.34-3.3,0.46-5,0.66c-0.85,0.09-1.71,0.19-2.57,0.28c-0.87,0.07-1.74,0.1-2.62,0.15c-1.76,0.07-3.54,0.23-5.34,0.22
			c-1.8-0.02-3.61-0.04-5.42-0.05l-1.36-0.01c-0.45-0.02-0.91-0.05-1.36-0.08l-2.73-0.17c-1.81-0.12-3.62-0.24-5.43-0.36
			c-1.83-0.14-3.64-0.37-5.42-0.65c-3.57-0.56-7.03-1.4-10.31-2.39c-3.29-0.98-6.39-2.19-9.25-3.51c-2.86-1.32-5.46-2.79-7.75-4.29
			c-2.3-1.5-4.3-3.04-5.94-4.53c-0.85-0.72-1.57-1.48-2.28-2.13c-0.67-0.69-1.27-1.34-1.82-1.92c-1.04-1.2-1.83-2.17-2.33-2.86
			c-0.51-0.68-0.78-1.04-0.78-1.04s0.3,0.34,0.86,0.98c0.29,0.31,0.62,0.72,1.05,1.16c0.43,0.44,0.92,0.95,1.46,1.53
			c0.58,0.54,1.2,1.15,1.91,1.79c0.73,0.61,1.48,1.31,2.36,1.97c1.71,1.38,3.76,2.77,6.07,4.16c4.62,2.77,10.41,5.33,16.89,7.15
			c3.23,0.93,6.64,1.64,10.13,2.19c1.75,0.26,3.51,0.48,5.28,0.6c1.8,0.1,3.61,0.21,5.42,0.32l2.69,0.18
			c0.45,0.03,0.9,0.07,1.35,0.08l1.35,0.02c1.79,0.02,3.58,0.05,5.35,0.08c0.89,0.04,1.77-0.04,2.65-0.06
			c0.88-0.03,1.75-0.06,2.62-0.09c0.87-0.04,1.73-0.04,2.59-0.1c0.85-0.08,1.7-0.16,2.54-0.23c1.67-0.17,3.34-0.27,4.93-0.55
			c0.8-0.12,1.6-0.24,2.38-0.36c0.78-0.12,1.56-0.21,2.31-0.4c1.5-0.34,2.98-0.63,4.39-0.98c1.39-0.4,2.75-0.76,4.04-1.16
			c1.27-0.46,2.49-0.88,3.64-1.32c1.12-0.5,2.21-0.93,3.19-1.42c1.95-0.98,3.61-1.96,4.88-2.89c0.64-0.46,1.21-0.88,1.67-1.28
			c0.49-0.38,0.86-0.74,1.16-1.04C150.44,103.57,150.71,103.21,150.71,103.21z"/>
	</g>
	<g>
		<path class="st0" d="M133.22,60.05l-2.02-10.11l-2.59,0.54c-10.88-13.32-38.16-19.27-67.95-13.44
			C30.05,43.03,6.59,59.53,2.4,76.44l-2.02,0.42l1.73,8.85c3.88,19.79,36.37,30.1,72.57,23.01
			C110.88,101.63,137.09,79.84,133.22,60.05z"/>
		<path class="st1" d="M72.95,99.87c-36.21,7.08-68.69-3.22-72.57-23.01C-3.49,57.06,22.72,35.28,58.92,28.2
			c36.2-7.08,68.69,3.22,72.57,23.01C135.36,71,109.15,92.79,72.95,99.87z"/>
		<g>
			<path class="st0" d="M59.61,34.42c31.58-6.18,59.93,1.83,64.82,17.94c-0.05-0.58-0.13-1.15-0.24-1.72
				c-3.37-17.22-32.58-26.01-65.25-19.62C26.28,37.41,2.53,56.55,5.9,73.78c0.11,0.57,0.25,1.13,0.42,1.68
				C4.79,58.7,28.03,40.6,59.61,34.42z"/>
			<path class="st2" d="M71.15,93.4c31.58-6.18,54.83-24.28,53.28-41.04c-4.89-16.11-33.24-24.11-64.82-17.94
				C28.03,40.6,4.79,58.7,6.32,75.46C11.21,91.57,39.57,99.58,71.15,93.4z"/>
			<path class="st3" d="M67.64,39.85c9.11,6.57,17.94,13.46,26.7,20.49c6.06,4.86,12.09,9.76,18.11,14.66
				c2.94-2.52,5.42-5.17,7.34-7.89c-6.58-5.63-13.21-11.18-19.94-16.62c-7.7-6.22-15.58-12.18-23.52-18.07
				c-5.26,0.22-10.74,0.85-16.33,1.92C62.54,36.19,65.09,38.01,67.64,39.85z"/>
			<path class="st3" d="M25,66.56C35.59,74,45.91,81.87,56.08,89.85c2.07,1.63,4.12,3.27,6.16,4.92c2.93-0.34,5.9-0.79,8.9-1.38
				c4.98-0.98,9.74-2.25,14.24-3.77c-6.05-4.57-12.17-9.07-18.38-13.43c-13.72-9.62-27.6-19.03-41.11-28.94
				c-5.33,3.35-9.76,7.09-13.06,11.02C16.9,61.02,20.98,63.74,25,66.56z"/>
		</g>
		<path class="st4" d="M127.71,68.6c0,0-0.15,0.49-0.58,1.36c-0.21,0.43-0.47,0.97-0.84,1.57c-0.18,0.3-0.36,0.64-0.58,0.97
			c-0.23,0.33-0.48,0.68-0.74,1.05c-1.04,1.48-2.47,3.15-4.24,4.95c-0.89,0.9-1.91,1.77-2.95,2.73c-1.08,0.91-2.29,1.79-3.51,2.75
			c-1.27,0.9-2.63,1.77-4.02,2.7c-1.42,0.89-2.95,1.69-4.5,2.58c-0.76,0.46-1.59,0.83-2.41,1.23c-0.82,0.4-1.65,0.8-2.5,1.2
			c-1.66,0.86-3.46,1.5-5.25,2.24c-0.9,0.36-1.81,0.72-2.72,1.09c-0.93,0.34-1.87,0.64-2.81,0.96c-1.9,0.61-3.79,1.32-5.75,1.86
			c-1.96,0.53-3.94,1.06-5.93,1.6l-1.49,0.4c-0.5,0.12-1.01,0.22-1.51,0.33l-3.03,0.65c-2.01,0.42-4.02,0.84-6.03,1.26
			c-2.04,0.4-4.09,0.7-6.11,0.94c-4.06,0.48-8.09,0.61-11.97,0.53c-3.89-0.07-7.64-0.45-11.16-1.02c-3.52-0.57-6.8-1.38-9.76-2.33
			c-2.96-0.94-5.61-2.01-7.86-3.14c-1.15-0.52-2.16-1.13-3.12-1.63c-0.94-0.54-1.79-1.07-2.57-1.53c-1.51-1-2.66-1.82-3.41-2.42
			c-0.76-0.59-1.17-0.9-1.17-0.9s0.43,0.28,1.24,0.81c0.41,0.25,0.89,0.6,1.49,0.95c0.6,0.35,1.29,0.76,2.06,1.21
			c0.79,0.42,1.66,0.89,2.62,1.38c0.99,0.44,2.02,0.98,3.17,1.43c2.29,0.98,4.95,1.88,7.89,2.7c5.88,1.61,12.98,2.65,20.6,2.66
			c3.81,0.03,7.75-0.23,11.71-0.69c1.98-0.24,3.97-0.55,5.94-0.95c2-0.42,4-0.86,6-1.29l3-0.62c0.5-0.11,1-0.21,1.5-0.32l1.47-0.39
			c1.97-0.52,3.92-1.03,5.87-1.53c0.98-0.23,1.92-0.58,2.86-0.88c0.95-0.3,1.89-0.6,2.83-0.89c0.94-0.3,1.88-0.58,2.79-0.9
			c0.9-0.34,1.8-0.68,2.69-1.03c1.78-0.69,3.56-1.3,5.22-2.09c0.84-0.38,1.67-0.75,2.49-1.11c0.82-0.37,1.64-0.71,2.4-1.14
			c1.54-0.82,3.06-1.58,4.49-2.4c1.4-0.86,2.78-1.67,4.06-2.49c1.24-0.89,2.44-1.72,3.56-2.55c1.07-0.89,2.13-1.68,3.05-2.52
			c1.83-1.67,3.34-3.24,4.45-4.63c0.56-0.7,1.05-1.33,1.43-1.91c0.41-0.56,0.72-1.07,0.95-1.49
			C127.52,69.08,127.71,68.6,127.71,68.6z"/>
	</g>
	<g>
		<path class="st0" d="M176.3,57.52l1.65-10.17l-2.61-0.41c-5.52-16.29-28.98-31.42-58.93-36.41c-30.76-5.12-58.52,2.1-68.37,16.48
			L46,26.7l-1.48,8.89c-3.31,19.89,23.51,40.93,59.9,46.99C140.8,88.63,172.98,77.42,176.3,57.52z"/>
		<path class="st1" d="M105.89,73.69C69.5,67.63,42.69,46.59,46,26.7C49.31,6.8,81.49-4.41,117.88,1.64
			c36.39,6.06,63.2,27.1,59.89,46.99C174.46,68.53,142.28,79.74,105.89,73.69z"/>
		<g>
			<path class="st0" d="M116.35,7.71c31.75,5.28,55.49,22.72,54.43,39.52c0.15-0.56,0.28-1.12,0.37-1.7
				c2.88-17.31-21.4-35.78-54.23-41.24C84.09-1.17,55.13,8.43,52.25,25.74c-0.09,0.57-0.16,1.15-0.19,1.73
				C56.49,11.23,84.6,2.43,116.35,7.71z"/>
			<path class="st2" d="M106.48,66.99c31.75,5.28,59.86-3.52,64.29-19.76c1.07-16.8-22.68-34.24-54.43-39.52
				C84.6,2.43,56.49,11.23,52.05,27.47C50.99,44.27,74.73,61.71,106.48,66.99z"/>
			<path class="st3" d="M121.96,15.62c6.23,9.35,12.09,18.89,17.82,28.55c3.97,6.67,7.9,13.37,11.83,20.08
				c3.64-1.33,6.89-2.94,9.64-4.82c-4.19-7.57-8.46-15.1-12.85-22.56c-5.03-8.52-10.33-16.86-15.69-25.17
				c-5.01-1.64-10.36-2.97-15.97-3.93C118.47,10.39,120.22,13,121.96,15.62z"/>
			<path class="st3" d="M72.66,25.69c7.31,10.67,14.22,21.66,20.94,32.71c1.37,2.24,2.71,4.5,4.05,6.77
				c2.86,0.71,5.8,1.33,8.82,1.83c5,0.83,9.92,1.31,14.66,1.47c-4.07-6.41-8.22-12.76-12.51-19.02
				c-9.47-13.82-19.18-27.5-28.36-41.52c-6.17,1.28-11.62,3.22-16.09,5.74C67.02,17.65,69.89,21.64,72.66,25.69z"/>
		</g>
		<path class="st4" d="M168.14,63.6c0,0-0.31,0.41-1.01,1.07c-0.35,0.33-0.79,0.74-1.34,1.17c-0.28,0.21-0.56,0.47-0.89,0.7
			c-0.33,0.23-0.68,0.47-1.06,0.72c-1.49,1.02-3.42,2.08-5.71,3.15c-1.14,0.54-2.41,0.99-3.72,1.53c-1.33,0.47-2.77,0.88-4.25,1.35
			c-1.5,0.39-3.08,0.73-4.71,1.12c-1.64,0.34-3.36,0.55-5.12,0.84c-0.88,0.17-1.78,0.22-2.68,0.31c-0.91,0.09-1.83,0.17-2.76,0.25
			c-1.86,0.23-3.77,0.19-5.71,0.25c-0.97,0.02-1.95,0.05-2.93,0.07c-0.98-0.01-1.97-0.06-2.97-0.09c-1.99-0.09-4.02-0.09-6.04-0.28
			c-2.02-0.2-4.07-0.39-6.11-0.58l-1.54-0.15c-0.51-0.06-1.02-0.15-1.53-0.22L105,74.37c-2.03-0.32-4.07-0.62-6.09-0.93
			c-2.06-0.34-4.07-0.77-6.06-1.26c-3.97-0.98-7.79-2.26-11.4-3.7c-3.62-1.42-7-3.1-10.09-4.87c-3.1-1.77-5.89-3.67-8.33-5.6
			c-2.44-1.92-4.54-3.85-6.26-5.7c-0.89-0.89-1.63-1.82-2.35-2.62c-0.69-0.84-1.3-1.63-1.86-2.34c-1.06-1.46-1.86-2.63-2.34-3.46
			c-0.51-0.82-0.78-1.26-0.78-1.26s0.31,0.42,0.87,1.19c0.29,0.38,0.62,0.88,1.06,1.42c0.44,0.54,0.94,1.16,1.5,1.86
			c0.6,0.66,1.25,1.42,1.98,2.21c0.77,0.76,1.54,1.63,2.47,2.46c1.8,1.72,3.97,3.49,6.44,5.29c4.94,3.57,11.22,7.03,18.36,9.72
			c3.56,1.36,7.33,2.5,11.21,3.46c1.94,0.47,3.91,0.88,5.9,1.2c2.02,0.3,4.05,0.59,6.07,0.89l3.03,0.47
			c0.5,0.07,1.01,0.16,1.51,0.23l1.52,0.15c2.02,0.21,4.04,0.41,6.03,0.62c1,0.13,2,0.13,2.99,0.19c0.99,0.05,1.98,0.1,2.96,0.16
			c0.98,0.05,1.96,0.12,2.93,0.14c0.97-0.01,1.93-0.01,2.89-0.01c1.91-0.03,3.79,0.03,5.62-0.13c0.91-0.05,1.82-0.11,2.72-0.17
			c0.9-0.06,1.79-0.09,2.65-0.22c1.73-0.23,3.42-0.41,5.05-0.67c1.61-0.31,3.18-0.59,4.67-0.91c1.47-0.39,2.89-0.75,4.23-1.14
			c1.31-0.46,2.58-0.83,3.74-1.29c2.3-0.92,4.26-1.86,5.79-2.78c0.77-0.46,1.45-0.87,2.01-1.29c0.58-0.38,1.04-0.75,1.42-1.05
			C167.79,63.98,168.14,63.6,168.14,63.6z"/>
	</g>
</g>
</svg>
