<?xml version="1.0" encoding="utf-8"?>
<!-- Generator: Adobe Illustrator 26.3.1, SVG Export Plug-In . SVG Version: 6.00 Build 0)  -->
<svg version="1.1" id="Layer_2" xmlns="http://www.w3.org/2000/svg" xmlns:xlink="http://www.w3.org/1999/xlink" x="0px" y="0px"
	 viewBox="0 0 1036.01 517.32" style="enable-background:new 0 0 1036.01 517.32;" xml:space="preserve">
<style type="text/css">
	.st0{fill:#231F20;}
</style>
<g>
	<path class="st0" d="M281.62,0h-72.68c-14.99,0-27.25,18.87-27.25,41.94v433.43c0,23.07,12.26,41.94,27.25,41.94h72.68
		c14.99,0,27.25-18.88,27.25-41.94V41.94C308.87,18.87,296.61,0,281.62,0z"/>
	<path class="st0" d="M137.4,87.38h-34.07c-14.99,0-27.25,18.87-27.25,41.94v258.66c0,23.07,12.26,41.94,27.25,41.94h34.07
		c14.99,0,27.25-18.88,27.25-41.94V129.33C164.66,106.26,152.39,87.38,137.4,87.38z"/>
	<path class="st0" d="M0,258.66c0,50.19,28.47,90.88,63.59,90.88V167.78C28.47,167.78,0,208.47,0,258.66z"/>
	<path class="st0" d="M830.14,0h-71.61c-14.77,0-26.85,18.87-26.85,41.94v433.43c0,23.07,12.08,41.94,26.85,41.94h71.61
		c14.77,0,26.85-18.88,26.85-41.94V41.94C856.99,18.87,844.91,0,830.14,0z"/>
	<path class="st0" d="M934.19,87.38h-33.57c-14.77,0-26.85,18.87-26.85,41.94v258.66c0,23.07,12.08,41.94,26.85,41.94h33.57
		c14.77,0,26.85-18.88,26.85-41.94V129.33C961.05,106.26,948.96,87.38,934.19,87.38z"/>
	<path class="st0" d="M973.35,167.78v181.76c34.6,0,62.66-40.69,62.66-90.88C1036.01,208.47,1007.96,167.78,973.35,167.78z"/>
	<rect x="319" y="181.76" class="st0" width="400.02" height="139.82"/>
</g>
</svg>
